<?xml version="1.0" encoding="UTF-8"?>
<svg width="284px" height="56px" viewBox="0 0 284 56" version="1.1" xmlns="http://www.w3.org/2000/svg" xmlns:xlink="http://www.w3.org/1999/xlink">
    <title>Logo 2 Copy</title>
    <g id="Logo-2-Copy" stroke="none" stroke-width="1" fill="none" fill-rule="evenodd" fill-opacity="0.983903151">
        <g id="Webbtech" transform="translate(3.000000, 0.000000)" fill="#2BA9B4" fill-rule="nonzero">
            <polygon id="Path" points="15.4865702 45.4237288 15.6043388 45.4237288 25.3791322 4 31.7975207 4 41.5134298 45.4237288 41.6311983 45.4237288 50.8171488 4 57 4 44.7520661 56 38.6869835 56 28.5588843 14.2090395 28.4411157 14.2090395 18.3130165 56 12.2479339 56 0 4 6.30061983 4"></polygon>
            <path d="M81.3763214,34.976 C81.3368569,33.632 81.149401,32.372 80.8139535,31.196 C80.478506,30.02 79.9852008,29 79.3340381,28.136 C78.6828753,27.272 77.8738548,26.588 76.9069767,26.084 C75.9400987,25.58 74.8054968,25.328 73.5031712,25.328 C72.3192389,25.328 71.2043693,25.58 70.1585624,26.084 C69.1127555,26.588 68.205074,27.272 67.435518,28.136 C66.6659619,29 66.0345314,30.02 65.5412262,31.196 C65.0479211,32.372 64.7618041,33.632 64.6828753,34.976 L81.3763214,34.976 Z M87,37.712 C87,38.096 87,38.48 87,38.864 C87,39.248 86.9802678,39.632 86.9408034,40.016 L64.6828753,40.016 C64.7223397,41.456 64.9887245,42.812 65.4820296,44.084 C65.9753347,45.356 66.6363636,46.46 67.4651163,47.396 C68.2938689,48.332 69.2508809,49.064 70.3361522,49.592 C71.4214235,50.12 72.5757576,50.384 73.7991543,50.384 C75.6934461,50.384 77.3312192,49.88 78.7124736,48.872 C80.093728,47.864 81.1789993,46.64 81.9682875,45.2 L85.8752643,49.016 C84.3756166,51.416 82.6095842,53.18 80.577167,54.308 C78.5447498,55.436 76.2854123,56 73.7991543,56 C71.6680761,56 69.6948555,55.568 67.8794926,54.704 C66.0641297,53.84 64.5052854,52.628 63.2029598,51.068 C61.9006342,49.508 60.8745595,47.624 60.1247357,45.416 C59.3749119,43.208 59,40.76 59,38.072 C59,35.432 59.3650458,32.996 60.0951374,30.764 C60.825229,28.532 61.8414376,26.624 63.1437632,25.04 C64.4460888,23.456 65.9852008,22.22 67.7610994,21.332 C69.5369979,20.444 71.4510218,20 73.5031712,20 C75.5553206,20 77.4200141,20.408 79.0972516,21.224 C80.7744891,22.04 82.1952079,23.216 83.359408,24.752 C84.5236082,26.288 85.4214235,28.148 86.0528541,30.332 C86.6842847,32.516 87,34.976 87,37.712 Z" id="Shape"></path>
            <path d="M99.4274354,49.5916775 L99.4274354,55.053316 L94,55.053316 L94,0 L99.6063618,0 L99.6063618,25.7061118 L99.7852883,25.7061118 C100.739563,24.0069354 102.071571,22.5626355 103.781312,21.373212 C105.491054,20.1837885 107.518887,19.5890767 109.864811,19.5890767 C111.972167,19.5890767 113.890656,20.0502818 115.620278,20.9726918 C117.349901,21.8951019 118.840954,23.1816212 120.093439,24.8322497 C121.345924,26.4828782 122.310139,28.4126571 122.986083,30.6215865 C123.662028,32.8305158 124,35.1972258 124,37.7217165 C124,40.2462072 123.662028,42.6250542 122.986083,44.8582575 C122.310139,47.0914608 121.355865,49.0333767 120.12326,50.6840052 C118.890656,52.3346337 117.399602,53.63329 115.650099,54.579974 C113.900596,55.526658 111.932406,56 109.745527,56 C107.717694,56 105.789264,55.4538362 103.960239,54.3615085 C102.131213,53.2691808 100.66004,51.6792371 99.5467197,49.5916775 L99.4274354,49.5916775 Z M118.214712,37.7217165 C118.214712,36.1196359 118.015905,34.5661032 117.61829,33.0611183 C117.220676,31.5561335 116.624254,30.2210663 115.829026,29.0559168 C115.033797,27.8907672 114.049702,26.9683572 112.87674,26.2886866 C111.703777,25.609016 110.341948,25.2691808 108.791252,25.2691808 C107.359841,25.2691808 106.057654,25.609016 104.884692,26.2886866 C103.71173,26.9683572 102.707753,27.8907672 101.872763,29.0559168 C101.037773,30.2210663 100.39165,31.5561335 99.9343936,33.0611183 C99.4771372,34.5661032 99.2485089,36.1439098 99.2485089,37.7945384 C99.2485089,39.4451669 99.4771372,41.0229736 99.9343936,42.5279584 C100.39165,44.0329432 101.037773,45.3558734 101.872763,46.496749 C102.707753,47.6376246 103.71173,48.5478977 104.884692,49.2275683 C106.057654,49.9072388 107.359841,50.2470741 108.791252,50.2470741 C110.341948,50.2470741 111.703777,49.8951019 112.87674,49.1911573 C114.049702,48.4872128 115.033797,47.5526658 115.829026,46.3875163 C116.624254,45.2223667 117.220676,43.8872995 117.61829,42.3823147 C118.015905,40.8773299 118.214712,39.3237971 118.214712,37.7217165 Z" id="Shape"></path>
            <path d="M137.427435,49.5916775 L137.427435,55.053316 L132,55.053316 L132,0 L137.606362,0 L137.606362,25.7061118 L137.785288,25.7061118 C138.739563,24.0069354 140.071571,22.5626355 141.781312,21.373212 C143.491054,20.1837885 145.518887,19.5890767 147.864811,19.5890767 C149.972167,19.5890767 151.890656,20.0502818 153.620278,20.9726918 C155.349901,21.8951019 156.840954,23.1816212 158.093439,24.8322497 C159.345924,26.4828782 160.310139,28.4126571 160.986083,30.6215865 C161.662028,32.8305158 162,35.1972258 162,37.7217165 C162,40.2462072 161.662028,42.6250542 160.986083,44.8582575 C160.310139,47.0914608 159.355865,49.0333767 158.12326,50.6840052 C156.890656,52.3346337 155.399602,53.63329 153.650099,54.579974 C151.900596,55.526658 149.932406,56 147.745527,56 C145.717694,56 143.789264,55.4538362 141.960239,54.3615085 C140.131213,53.2691808 138.66004,51.6792371 137.54672,49.5916775 L137.427435,49.5916775 Z M156.214712,37.7217165 C156.214712,36.1196359 156.015905,34.5661032 155.61829,33.0611183 C155.220676,31.5561335 154.624254,30.2210663 153.829026,29.0559168 C153.033797,27.8907672 152.049702,26.9683572 150.87674,26.2886866 C149.703777,25.609016 148.341948,25.2691808 146.791252,25.2691808 C145.359841,25.2691808 144.057654,25.609016 142.884692,26.2886866 C141.71173,26.9683572 140.707753,27.8907672 139.872763,29.0559168 C139.037773,30.2210663 138.39165,31.5561335 137.934394,33.0611183 C137.477137,34.5661032 137.248509,36.1439098 137.248509,37.7945384 C137.248509,39.4451669 137.477137,41.0229736 137.934394,42.5279584 C138.39165,44.0329432 139.037773,45.3558734 139.872763,46.496749 C140.707753,47.6376246 141.71173,48.5478977 142.884692,49.2275683 C144.057654,49.9072388 145.359841,50.2470741 146.791252,50.2470741 C148.341948,50.2470741 149.703777,49.8951019 150.87674,49.1911573 C152.049702,48.4872128 153.033797,47.5526658 153.829026,46.3875163 C154.624254,45.2223667 155.220676,43.8872995 155.61829,42.3823147 C156.015905,40.8773299 156.214712,39.3237971 156.214712,37.7217165 Z" id="Shape"></path>
            <path d="M183,26.5097087 L175.683871,26.5097087 L175.683871,44.4951456 C175.683871,46.5825243 175.993548,48.0752427 176.612903,48.973301 C177.232258,49.8713592 178.219355,50.3203883 179.574194,50.3203883 C180.077419,50.3203883 180.619355,50.2475728 181.2,50.1019417 C181.780645,49.9563107 182.303226,49.7378641 182.767742,49.4466019 L182.941935,55.0533981 C182.283871,55.3446602 181.558065,55.5752427 180.764516,55.7451456 C179.970968,55.9150485 179.148387,56 178.296774,56 C175.703226,56 173.719355,55.1019417 172.345161,53.3058252 C170.970968,51.5097087 170.283871,48.815534 170.283871,45.223301 L170.283871,26.5097087 L165,26.5097087 L165,20.9029126 L170.283871,20.9029126 L170.283871,11 L175.683871,11 L175.683871,20.9029126 L183,20.9029126 L183,26.5097087 Z" id="Path"></path>
            <path d="M209.376321,34.976 C209.336857,33.632 209.149401,32.372 208.813953,31.196 C208.478506,30.02 207.985201,29 207.334038,28.136 C206.682875,27.272 205.873855,26.588 204.906977,26.084 C203.940099,25.58 202.805497,25.328 201.503171,25.328 C200.319239,25.328 199.204369,25.58 198.158562,26.084 C197.112755,26.588 196.205074,27.272 195.435518,28.136 C194.665962,29 194.034531,30.02 193.541226,31.196 C193.047921,32.372 192.761804,33.632 192.682875,34.976 L209.376321,34.976 Z M215,37.712 C215,38.096 215,38.48 215,38.864 C215,39.248 214.980268,39.632 214.940803,40.016 L192.682875,40.016 C192.72234,41.456 192.988724,42.812 193.48203,44.084 C193.975335,45.356 194.636364,46.46 195.465116,47.396 C196.293869,48.332 197.250881,49.064 198.336152,49.592 C199.421424,50.12 200.575758,50.384 201.799154,50.384 C203.693446,50.384 205.331219,49.88 206.712474,48.872 C208.093728,47.864 209.178999,46.64 209.968288,45.2 L213.875264,49.016 C212.375617,51.416 210.609584,53.18 208.577167,54.308 C206.54475,55.436 204.285412,56 201.799154,56 C199.668076,56 197.694856,55.568 195.879493,54.704 C194.06413,53.84 192.505285,52.628 191.20296,51.068 C189.900634,49.508 188.87456,47.624 188.124736,45.416 C187.374912,43.208 187,40.76 187,38.072 C187,35.432 187.365046,32.996 188.095137,30.764 C188.825229,28.532 189.841438,26.624 191.143763,25.04 C192.446089,23.456 193.985201,22.22 195.761099,21.332 C197.536998,20.444 199.451022,20 201.503171,20 C203.555321,20 205.420014,20.408 207.097252,21.224 C208.774489,22.04 210.195208,23.216 211.359408,24.752 C212.523608,26.288 213.421424,28.148 214.052854,30.332 C214.684285,32.516 215,34.976 215,37.712 Z" id="Shape"></path>
            <path d="M242.006944,29.576 C241.428241,28.472 240.560185,27.548 239.402778,26.804 C238.24537,26.06 237.010802,25.688 235.699074,25.688 C234.271605,25.688 233.008102,26.024 231.908565,26.696 C230.809028,27.368 229.873457,28.268 229.101852,29.396 C228.330247,30.524 227.741898,31.832 227.336806,33.32 C226.931713,34.808 226.729167,36.368 226.729167,38 C226.729167,39.632 226.931713,41.192 227.336806,42.68 C227.741898,44.168 228.330247,45.476 229.101852,46.604 C229.873457,47.732 230.818673,48.632 231.9375,49.304 C233.056327,49.976 234.329475,50.312 235.756944,50.312 C237.145833,50.312 238.409336,49.976 239.547454,49.304 C240.685571,48.632 241.621142,47.72 242.354167,46.568 L246,50.672 C244.842593,52.352 243.395833,53.66 241.659722,54.596 C239.923611,55.532 237.956019,56 235.756944,56 C233.635031,56 231.677083,55.568 229.883102,54.704 C228.08912,53.84 226.536265,52.628 225.224537,51.068 C223.912809,49.508 222.880787,47.624 222.128472,45.416 C221.376157,43.208 221,40.736 221,38 C221,35.312 221.366512,32.864 222.099537,30.656 C222.832562,28.448 223.854938,26.552 225.166667,24.968 C226.478395,23.384 228.03125,22.16 229.825231,21.296 C231.619213,20.432 233.55787,20 235.641204,20 C237.570216,20 239.489583,20.48 241.399306,21.44 C243.309028,22.4 244.823302,23.792 245.94213,25.616 L242.006944,29.576 Z" id="Path"></path>
            <path d="M257.673759,25.7539683 C258.343578,24.0564374 259.48621,22.6014109 261.101655,21.3888889 C262.7171,20.1763668 264.529551,19.5701058 266.539007,19.5701058 C268.351458,19.5701058 269.907801,19.9459877 271.208038,20.6977513 C272.508274,21.449515 273.591805,22.4559083 274.458629,23.7169312 C275.325453,24.9779541 275.965721,26.457231 276.379433,28.1547619 C276.793144,29.8522928 277,31.6710758 277,33.6111111 L277,55 L271.444444,55 L271.444444,35.9391534 C271.444444,34.5326279 271.355792,33.1988536 271.178487,31.9378307 C271.001182,30.6768078 270.676123,29.5612875 270.20331,28.5912698 C269.730496,27.6212522 269.090229,26.8452381 268.282506,26.2632275 C267.474783,25.6812169 266.420804,25.3902116 265.120567,25.3902116 C262.914106,25.3902116 261.101655,26.4208554 259.683215,28.4821429 C258.264775,30.5434303 257.555556,33.2958554 257.555556,36.739418 L257.555556,55 L252,55 L252,0 L257.555556,0 L257.555556,25.7539683 L257.673759,25.7539683 Z" id="Path"></path>
        </g>
    </g>
</svg>