<?xml version="1.0" encoding="UTF-8"?>
<svg width="284px" height="56px" viewBox="0 0 284 56" version="1.1" xmlns="http://www.w3.org/2000/svg" xmlns:xlink="http://www.w3.org/1999/xlink">
    <title>Logo Reverse Gradient Simple</title>
    <defs>
        <linearGradient x1="50%" y1="0%" x2="50%" y2="100%" id="linearGradient-1">
            <stop stop-color="#FFFFFF" offset="0%"></stop>
            <stop stop-color="#8BA4B8" offset="59.6851572%"></stop>
            <stop stop-color="#3A4D5C" offset="100%"></stop>
        </linearGradient>
    </defs>
    <g id="Logo-Reverse-Gradient-Simple" stroke="none" stroke-width="1" fill="none" fill-rule="evenodd">
        <path d="M23.976454,54.1503906 L35.3690321,21.9765625 L46.835829,54.1503906 L48.320204,54.1503906 L62.3475477,13.5898438 C63.4113498,10.3242188 64.1906467,8.25846354 64.6854384,7.39257812 C65.4276259,6.10611979 66.2069227,5.22786458 67.023329,4.7578125 C67.8397352,4.28776042 68.9035373,4.05273438 70.2147352,4.05273438 L70.2147352,4.05273438 L70.2147352,2.6796875 L55.1854384,2.6796875 L55.1854384,4.05273438 C56.694553,4.05273438 57.9191623,4.22591146 58.8592665,4.57226562 C59.4035373,4.77018229 59.8550347,5.11653646 60.2137587,5.61132812 C60.5724826,6.10611979 60.7518446,6.63802083 60.7518446,7.20703125 C60.7518446,8.39453125 60.2075738,10.5221354 59.1190321,13.5898438 L59.1190321,13.5898438 L49.5448134,41.3105469 L39.8963759,13.9609375 C38.7830946,10.8190104 38.226454,8.6171875 38.226454,7.35546875 C38.226454,6.34114583 38.5480686,5.53710938 39.1912977,4.94335938 C39.8345269,4.34960938 40.8488498,4.05273438 42.2342665,4.05273438 L42.2342665,4.05273438 L43.570204,4.05273438 L43.570204,2.6796875 L23.976454,2.6796875 L23.976454,4.05273438 C24.9907769,4.05273438 25.7329644,4.12695312 26.2030165,4.27539062 C26.8215061,4.47330729 27.4399957,4.79492188 28.0584852,5.24023438 C28.5285373,5.56184896 28.9243707,5.95768229 29.2459852,6.42773438 C29.8892144,7.36783854 30.4705946,8.45638021 30.9901259,9.69335938 L30.9901259,9.69335938 L32.1776259,13.0703125 L33.6620009,17.3007812 L25.3123915,41.3105469 L15.4041884,13.0703125 C14.3156467,9.953125 13.7713759,7.96158854 13.7713759,7.09570312 C13.7713759,6.25455729 14.11773,5.53710938 14.8104384,4.94335938 C15.5031467,4.34960938 16.5050998,4.05273438 17.8162977,4.05273438 L17.8162977,4.05273438 L18.7069227,4.05273438 L18.7069227,2.6796875 L0.0780164931,2.6796875 L0.0780164931,4.05273438 C1.53765191,4.05273438 2.69422743,4.28157552 3.54774306,4.73925781 C4.40125868,5.1969401 5.07541233,5.89583333 5.57020399,6.8359375 C5.86707899,7.40494792 6.57215712,9.24804688 7.68543837,12.3652344 L7.68543837,12.3652344 L22.6405165,54.1503906 L23.976454,54.1503906 Z M79.7477214,54.0390625 C83.508138,54.0390625 86.6376953,52.6474609 89.1363932,49.8642578 C91.6350911,47.0810547 93.1442057,43.9947917 93.663737,40.6054688 L93.663737,40.6054688 L92.5133464,39.8632812 C91.4000651,42.8320312 90.0208333,44.9287109 88.375651,46.1533203 C86.7304688,47.3779297 84.7945964,47.9902344 82.5680339,47.9902344 C79.2281901,47.9902344 76.3212891,46.5553385 73.8473307,43.6855469 C71.3733724,40.8157552 70.148763,36.8574219 70.1735026,31.8105469 L70.1735026,31.8105469 L93.663737,31.8105469 C93.663737,27.6048177 92.4391276,24.2464193 89.9899089,21.7353516 C87.5406901,19.2242839 84.4111328,17.96875 80.601237,17.96875 C76.0986328,17.96875 72.3567708,19.5953776 69.375651,22.8486328 C66.3945313,26.101888 64.9039714,30.6354167 64.9039714,36.4492188 C64.9039714,41.8177083 66.3574219,46.0914714 69.2643229,49.2705078 C72.171224,52.4495443 75.6656901,54.0390625 79.7477214,54.0390625 Z M85.9078776,29.6582031 L70.1735026,29.6582031 C70.445638,26.813151 71.3919271,24.5927734 73.0123698,22.9970703 C74.6328125,21.4013672 76.4697266,20.6035156 78.523112,20.6035156 C79.8590495,20.6035156 81.1393229,20.999349 82.3639323,21.7910156 C83.5885417,22.5826823 84.5100911,23.671224 85.1285807,25.0566406 C85.5244141,25.9472656 85.7841797,27.4811198 85.9078776,29.6582031 L85.9078776,29.6582031 Z M111.026801,54.0390625 C115.25727,54.0390625 119.091905,52.4557292 122.530707,49.2890625 C126.53852,45.6028646 128.542426,40.7415365 128.542426,34.7050781 C128.542426,29.5345052 127.243598,25.4586589 124.645942,22.4775391 C122.048286,19.4964193 119.005317,18.0058594 115.517036,18.0058594 C111.70714,18.0058594 108.15701,20.2942708 104.866645,24.8710938 L104.866645,24.8710938 L104.866645,0.23046875 L103.196723,0.23046875 L92.991645,4.38671875 L93.5111762,5.68554688 C94.5502387,5.28971354 95.4161241,5.09179688 96.1088325,5.09179688 C96.7025825,5.09179688 97.1973741,5.25260417 97.5932075,5.57421875 C97.9890408,5.89583333 98.2797309,6.50195312 98.4652778,7.39257812 C98.6508247,8.28320312 98.7435981,10.6582031 98.7435981,14.5175781 L98.7435981,49.734375 C100.871202,51.1692708 102.955512,52.2454427 104.996528,52.9628906 C107.037543,53.6803385 109.047635,54.0390625 111.026801,54.0390625 Z M112.919379,51.3300781 C111.509223,51.3300781 110.129991,51.0146484 108.781684,50.3837891 C107.433377,49.7529297 106.128364,48.8190104 104.866645,47.5820312 L104.866645,47.5820312 L104.866645,27.2460938 C106.400499,25.7617188 107.662218,24.7721354 108.651801,24.2773438 C109.962999,23.609375 111.274197,23.2753906 112.585395,23.2753906 C115.059353,23.2753906 117.267361,24.4443359 119.209418,26.7822266 C121.151476,29.1201172 122.122504,32.4661458 122.122504,36.8203125 C122.122504,41.5455729 121.151476,45.1451823 119.209418,47.6191406 C117.267361,50.093099 115.170681,51.3300781 112.919379,51.3300781 Z M146.387912,54.0390625 C150.618381,54.0390625 154.453016,52.4557292 157.891819,49.2890625 C161.899631,45.6028646 163.903537,40.7415365 163.903537,34.7050781 C163.903537,29.5345052 162.604709,25.4586589 160.007053,22.4775391 C157.409397,19.4964193 154.366428,18.0058594 150.878147,18.0058594 C147.068251,18.0058594 143.518121,20.2942708 140.227756,24.8710938 L140.227756,24.8710938 L140.227756,0.23046875 L138.557834,0.23046875 L128.352756,4.38671875 L128.872287,5.68554688 C129.91135,5.28971354 130.777235,5.09179688 131.469944,5.09179688 C132.063694,5.09179688 132.558485,5.25260417 132.954319,5.57421875 C133.350152,5.89583333 133.640842,6.50195312 133.826389,7.39257812 C134.011936,8.28320312 134.104709,10.6582031 134.104709,14.5175781 L134.104709,49.734375 C136.232313,51.1692708 138.316623,52.2454427 140.357639,52.9628906 C142.398655,53.6803385 144.408746,54.0390625 146.387912,54.0390625 Z M148.28049,51.3300781 C146.870334,51.3300781 145.491102,51.0146484 144.142795,50.3837891 C142.794488,49.7529297 141.489475,48.8190104 140.227756,47.5820312 L140.227756,47.5820312 L140.227756,27.2460938 C141.76161,25.7617188 143.023329,24.7721354 144.012912,24.2773438 C145.32411,23.609375 146.635308,23.2753906 147.946506,23.2753906 C150.420464,23.2753906 152.628472,24.4443359 154.57053,26.7822266 C156.512587,29.1201172 157.483615,32.4661458 157.483615,36.8203125 C157.483615,41.5455729 156.512587,45.1451823 154.57053,47.6191406 C152.628472,50.093099 150.531793,51.3300781 148.28049,51.3300781 Z M176.553711,53.5566406 C178.236003,53.5566406 179.868815,52.9443359 181.452148,51.7197266 C183.035482,50.4951172 184.260091,48.6705729 185.125977,46.2460938 L185.125977,46.2460938 L183.678711,46.2460938 C183.258138,47.2356771 182.664388,47.9840495 181.897461,48.4912109 C181.130534,48.9983724 180.338867,49.2519531 179.522461,49.2519531 C178.532878,49.2519531 177.722656,48.8684896 177.091797,48.1015625 C176.460938,47.3346354 176.145508,45.8502604 176.145508,43.6484375 L176.145508,43.6484375 L176.145508,21.6054688 L184.086914,21.6054688 L184.086914,19.0078125 L176.145508,19.0078125 L176.145508,7.83789062 L174.995117,7.83789062 C173.980794,10.3365885 173.189128,12.0559896 172.620117,12.9960938 C171.506836,14.7773438 170.238932,16.3173828 168.816406,17.6162109 C167.39388,18.9150391 166.002279,19.8365885 164.641602,20.3808594 L164.641602,20.3808594 L164.641602,21.6054688 L170.022461,21.6054688 L170.022461,44.4648438 C170.022461,46.9140625 170.282227,48.726237 170.801758,49.9013672 C171.321289,51.0764974 172.125326,51.9794922 173.213867,52.6103516 C174.302409,53.2412109 175.41569,53.5566406 176.553711,53.5566406 Z M200.039822,54.0390625 C203.800239,54.0390625 206.929796,52.6474609 209.428494,49.8642578 C211.927192,47.0810547 213.436306,43.9947917 213.955838,40.6054688 L213.955838,40.6054688 L212.805447,39.8632812 C211.692166,42.8320312 210.312934,44.9287109 208.667752,46.1533203 C207.022569,47.3779297 205.086697,47.9902344 202.860135,47.9902344 C199.520291,47.9902344 196.61339,46.5553385 194.139431,43.6855469 C191.665473,40.8157552 190.440864,36.8574219 190.465603,31.8105469 L190.465603,31.8105469 L213.955838,31.8105469 C213.955838,27.6048177 212.731228,24.2464193 210.28201,21.7353516 C207.832791,19.2242839 204.703234,17.96875 200.893338,17.96875 C196.390734,17.96875 192.648872,19.5953776 189.667752,22.8486328 C186.686632,26.101888 185.196072,30.6354167 185.196072,36.4492188 C185.196072,41.8177083 186.649523,46.0914714 189.556424,49.2705078 C192.463325,52.4495443 195.957791,54.0390625 200.039822,54.0390625 Z M206.199978,29.6582031 L190.465603,29.6582031 C190.737739,26.813151 191.684028,24.5927734 193.30447,22.9970703 C194.924913,21.4013672 196.761827,20.6035156 198.815213,20.6035156 C200.15115,20.6035156 201.431424,20.999349 202.656033,21.7910156 C203.880642,22.5826823 204.802192,23.671224 205.420681,25.0566406 C205.816515,25.9472656 206.07628,27.4811198 206.199978,29.6582031 L206.199978,29.6582031 Z M230.465386,54.0390625 C233.706272,54.0390625 236.662652,52.8330078 239.334527,50.4208984 C242.006402,48.0087891 243.800022,44.5638021 244.715386,40.0859375 L244.715386,40.0859375 L243.639214,39.5664062 C242.352756,42.5598958 241.029188,44.625651 239.668511,45.7636719 C237.738824,47.421224 235.56174,48.25 233.137261,48.25 C229.747938,48.25 227.057509,46.6975911 225.065972,43.5927734 C223.074436,40.4879557 222.078668,36.906901 222.078668,32.8496094 C222.078668,28.8665365 223.080621,25.6627604 225.084527,23.2382812 C226.593641,21.4075521 228.585178,20.4921875 231.059136,20.4921875 C232.59299,20.4921875 233.79286,20.8632812 234.658746,21.6054688 C235.524631,22.3723958 236.025608,23.4856771 236.161675,24.9453125 C236.297743,26.4049479 236.576063,27.3945312 236.996636,27.9140625 C237.738824,28.8541667 238.839735,29.3242188 240.299371,29.3242188 C241.387912,29.3242188 242.235243,29.0335286 242.841363,28.4521484 C243.447483,27.8707682 243.750543,27.110026 243.750543,26.1699219 C243.750543,24.264974 242.674371,22.4280599 240.522027,20.6591797 C238.369683,18.8902995 235.623589,18.0058594 232.283746,18.0058594 C227.830621,18.0058594 224.01454,19.6757812 220.835503,23.015625 C217.656467,26.3554688 216.066949,30.6972656 216.066949,36.0410156 C216.066949,41.5579427 217.501845,45.936849 220.371636,49.1777344 C223.241428,52.4186198 226.606011,54.0390625 230.465386,54.0390625 Z M262.412435,53 L262.412435,51.6640625 C260.680664,51.6640625 259.46224,51.4723307 258.757161,51.0888672 C258.052083,50.7054036 257.569661,50.2291667 257.309896,49.6601562 C257.05013,49.0911458 256.920247,47.6438802 256.920247,45.3183594 L256.920247,45.3183594 L256.920247,27.3574219 C258.750977,25.4029948 260.32194,24.1041667 261.633138,23.4609375 C262.944336,22.8177083 264.206055,22.4960938 265.418294,22.4960938 C266.605794,22.4960938 267.620117,22.7867839 268.461263,23.3681641 C269.302409,23.9495443 269.914714,24.8216146 270.298177,25.984375 C270.681641,27.1471354 270.873372,29.5839844 270.873372,33.2949219 L270.873372,33.2949219 L270.873064,45.6166735 C270.869363,47.3683183 270.832357,48.4316406 270.762044,48.8066406 C270.514648,49.7467448 270.081706,50.4580078 269.463216,50.9404297 C268.844727,51.4228516 267.743815,51.6640625 266.160482,51.6640625 L266.160482,51.6640625 L265.381185,51.6640625 L265.381185,53 L282.080404,53 L282.080404,51.6640625 C280.49707,51.6640625 279.408529,51.4908854 278.814779,51.1445312 C278.221029,50.7981771 277.800456,50.328125 277.55306,49.734375 C277.206706,48.9427083 277.033529,47.4707031 277.033529,45.3183594 L277.033529,45.3183594 L277.033529,33.2949219 C277.033529,29.0891927 276.798503,26.1946615 276.328451,24.6113281 C275.660482,22.3352865 274.633789,20.6653646 273.248372,19.6015625 C271.862956,18.5377604 270.205404,18.0058594 268.275716,18.0058594 C266.667643,18.0058594 265.05957,18.4326172 263.451497,19.2861328 C261.843424,20.1396484 259.666341,22.0755208 256.920247,25.09375 L256.920247,25.09375 L256.920247,0.23046875 L255.213216,0.23046875 L245.045247,4.38671875 L245.564779,5.68554688 C246.727539,5.28971354 247.568685,5.09179688 248.088216,5.09179688 C248.731445,5.09179688 249.244792,5.25260417 249.628255,5.57421875 C250.011719,5.89583333 250.296224,6.50195312 250.481771,7.39257812 C250.667318,8.28320312 250.760091,10.6705729 250.760091,14.5546875 L250.760091,14.5546875 L250.760091,45.3183594 C250.760091,47.4459635 250.611654,48.8561198 250.314779,49.5488281 C250.017904,50.2415365 249.62207,50.7115885 249.127279,50.9589844 C248.261393,51.4290365 247.073893,51.6640625 245.564779,51.6640625 L245.564779,51.6640625 L245.564779,53 L262.412435,53 Z" id="Webbtech" fill="url(#linearGradient-1)" fill-rule="nonzero"></path>
    </g>
</svg>