<?xml version="1.0" encoding="UTF-8"?>
<svg width="290px" height="100px" viewBox="0 0 290 100" version="1.1" xmlns="http://www.w3.org/2000/svg" xmlns:xlink="http://www.w3.org/1999/xlink">
    <title>Logo Reverse Gradient</title>
    <defs>
        <linearGradient x1="50%" y1="0%" x2="50%" y2="100%" id="linearGradient-1">
            <stop stop-color="#FFFFFF" offset="0%"></stop>
            <stop stop-color="#8BA4B8" offset="59.6851572%"></stop>
            <stop stop-color="#367BB5" offset="100%"></stop>
        </linearGradient>
    </defs>
    <g id="Logo-Reverse-Gradient" stroke="none" stroke-width="1" fill="none" fill-rule="evenodd">
        <text id="Advanced-web-solutio" font-family="SavoyeLetPlain, Savoye LET" font-size="46" font-weight="normal" fill="#8EACC5">
            <tspan x="7.42773438" y="94">Advanced web solutions</tspan>
        </text>
        <path d="M28.976454,57.1503906 L40.3690321,24.9765625 L51.835829,57.1503906 L53.320204,57.1503906 L67.3475477,16.5898438 C68.4113498,13.3242188 69.1906467,11.2584635 69.6854384,10.3925781 C70.4276259,9.10611979 71.2069227,8.22786458 72.023329,7.7578125 C72.8397352,7.28776042 73.9035373,7.05273438 75.2147352,7.05273438 L75.2147352,7.05273438 L75.2147352,5.6796875 L60.1854384,5.6796875 L60.1854384,7.05273438 C61.694553,7.05273438 62.9191623,7.22591146 63.8592665,7.57226562 C64.4035373,7.77018229 64.8550347,8.11653646 65.2137587,8.61132812 C65.5724826,9.10611979 65.7518446,9.63802083 65.7518446,10.2070312 C65.7518446,11.3945312 65.2075738,13.5221354 64.1190321,16.5898438 L64.1190321,16.5898438 L54.5448134,44.3105469 L44.8963759,16.9609375 C43.7830946,13.8190104 43.226454,11.6171875 43.226454,10.3554688 C43.226454,9.34114583 43.5480686,8.53710938 44.1912977,7.94335938 C44.8345269,7.34960938 45.8488498,7.05273438 47.2342665,7.05273438 L47.2342665,7.05273438 L48.570204,7.05273438 L48.570204,5.6796875 L28.976454,5.6796875 L28.976454,7.05273438 C29.9907769,7.05273438 30.7329644,7.12695312 31.2030165,7.27539062 C31.8215061,7.47330729 32.4399957,7.79492188 33.0584852,8.24023438 C33.5285373,8.56184896 33.9243707,8.95768229 34.2459852,9.42773438 C34.8892144,10.3678385 35.4705946,11.4563802 35.9901259,12.6933594 L35.9901259,12.6933594 L37.1776259,16.0703125 L38.6620009,20.3007812 L30.3123915,44.3105469 L20.4041884,16.0703125 C19.3156467,12.953125 18.7713759,10.9615885 18.7713759,10.0957031 C18.7713759,9.25455729 19.11773,8.53710938 19.8104384,7.94335938 C20.5031467,7.34960938 21.5050998,7.05273438 22.8162977,7.05273438 L22.8162977,7.05273438 L23.7069227,7.05273438 L23.7069227,5.6796875 L5.07801649,5.6796875 L5.07801649,7.05273438 C6.53765191,7.05273438 7.69422743,7.28157552 8.54774306,7.73925781 C9.40125868,8.1969401 10.0754123,8.89583333 10.570204,9.8359375 C10.867079,10.4049479 11.5721571,12.2480469 12.6854384,15.3652344 L12.6854384,15.3652344 L27.6405165,57.1503906 L28.976454,57.1503906 Z M84.7477214,57.0390625 C88.508138,57.0390625 91.6376953,55.6474609 94.1363932,52.8642578 C96.6350911,50.0810547 98.1442057,46.9947917 98.663737,43.6054688 L98.663737,43.6054688 L97.5133464,42.8632812 C96.4000651,45.8320312 95.0208333,47.9287109 93.375651,49.1533203 C91.7304688,50.3779297 89.7945964,50.9902344 87.5680339,50.9902344 C84.2281901,50.9902344 81.3212891,49.5553385 78.8473307,46.6855469 C76.3733724,43.8157552 75.148763,39.8574219 75.1735026,34.8105469 L75.1735026,34.8105469 L98.663737,34.8105469 C98.663737,30.6048177 97.4391276,27.2464193 94.9899089,24.7353516 C92.5406901,22.2242839 89.4111328,20.96875 85.601237,20.96875 C81.0986328,20.96875 77.3567708,22.5953776 74.375651,25.8486328 C71.3945313,29.101888 69.9039714,33.6354167 69.9039714,39.4492188 C69.9039714,44.8177083 71.3574219,49.0914714 74.2643229,52.2705078 C77.171224,55.4495443 80.6656901,57.0390625 84.7477214,57.0390625 Z M90.9078776,32.6582031 L75.1735026,32.6582031 C75.445638,29.813151 76.3919271,27.5927734 78.0123698,25.9970703 C79.6328125,24.4013672 81.4697266,23.6035156 83.523112,23.6035156 C84.8590495,23.6035156 86.1393229,23.999349 87.3639323,24.7910156 C88.5885417,25.5826823 89.5100911,26.671224 90.1285807,28.0566406 C90.5244141,28.9472656 90.7841797,30.4811198 90.9078776,32.6582031 L90.9078776,32.6582031 Z M116.026801,57.0390625 C120.25727,57.0390625 124.091905,55.4557292 127.530707,52.2890625 C131.53852,48.6028646 133.542426,43.7415365 133.542426,37.7050781 C133.542426,32.5345052 132.243598,28.4586589 129.645942,25.4775391 C127.048286,22.4964193 124.005317,21.0058594 120.517036,21.0058594 C116.70714,21.0058594 113.15701,23.2942708 109.866645,27.8710938 L109.866645,27.8710938 L109.866645,3.23046875 L108.196723,3.23046875 L97.991645,7.38671875 L98.5111762,8.68554688 C99.5502387,8.28971354 100.416124,8.09179688 101.108832,8.09179688 C101.702582,8.09179688 102.197374,8.25260417 102.593207,8.57421875 C102.989041,8.89583333 103.279731,9.50195312 103.465278,10.3925781 C103.650825,11.2832031 103.743598,13.6582031 103.743598,17.5175781 L103.743598,52.734375 C105.871202,54.1692708 107.955512,55.2454427 109.996528,55.9628906 C112.037543,56.6803385 114.047635,57.0390625 116.026801,57.0390625 Z M117.919379,54.3300781 C116.509223,54.3300781 115.129991,54.0146484 113.781684,53.3837891 C112.433377,52.7529297 111.128364,51.8190104 109.866645,50.5820312 L109.866645,50.5820312 L109.866645,30.2460938 C111.400499,28.7617188 112.662218,27.7721354 113.651801,27.2773438 C114.962999,26.609375 116.274197,26.2753906 117.585395,26.2753906 C120.059353,26.2753906 122.267361,27.4443359 124.209418,29.7822266 C126.151476,32.1201172 127.122504,35.4661458 127.122504,39.8203125 C127.122504,44.5455729 126.151476,48.1451823 124.209418,50.6191406 C122.267361,53.093099 120.170681,54.3300781 117.919379,54.3300781 Z M151.387912,57.0390625 C155.618381,57.0390625 159.453016,55.4557292 162.891819,52.2890625 C166.899631,48.6028646 168.903537,43.7415365 168.903537,37.7050781 C168.903537,32.5345052 167.604709,28.4586589 165.007053,25.4775391 C162.409397,22.4964193 159.366428,21.0058594 155.878147,21.0058594 C152.068251,21.0058594 148.518121,23.2942708 145.227756,27.8710938 L145.227756,27.8710938 L145.227756,3.23046875 L143.557834,3.23046875 L133.352756,7.38671875 L133.872287,8.68554688 C134.91135,8.28971354 135.777235,8.09179688 136.469944,8.09179688 C137.063694,8.09179688 137.558485,8.25260417 137.954319,8.57421875 C138.350152,8.89583333 138.640842,9.50195312 138.826389,10.3925781 C139.011936,11.2832031 139.104709,13.6582031 139.104709,17.5175781 L139.104709,52.734375 C141.232313,54.1692708 143.316623,55.2454427 145.357639,55.9628906 C147.398655,56.6803385 149.408746,57.0390625 151.387912,57.0390625 Z M153.28049,54.3300781 C151.870334,54.3300781 150.491102,54.0146484 149.142795,53.3837891 C147.794488,52.7529297 146.489475,51.8190104 145.227756,50.5820312 L145.227756,50.5820312 L145.227756,30.2460938 C146.76161,28.7617188 148.023329,27.7721354 149.012912,27.2773438 C150.32411,26.609375 151.635308,26.2753906 152.946506,26.2753906 C155.420464,26.2753906 157.628472,27.4443359 159.57053,29.7822266 C161.512587,32.1201172 162.483615,35.4661458 162.483615,39.8203125 C162.483615,44.5455729 161.512587,48.1451823 159.57053,50.6191406 C157.628472,53.093099 155.531793,54.3300781 153.28049,54.3300781 Z M181.553711,56.5566406 C183.236003,56.5566406 184.868815,55.9443359 186.452148,54.7197266 C188.035482,53.4951172 189.260091,51.6705729 190.125977,49.2460938 L190.125977,49.2460938 L188.678711,49.2460938 C188.258138,50.2356771 187.664388,50.9840495 186.897461,51.4912109 C186.130534,51.9983724 185.338867,52.2519531 184.522461,52.2519531 C183.532878,52.2519531 182.722656,51.8684896 182.091797,51.1015625 C181.460938,50.3346354 181.145508,48.8502604 181.145508,46.6484375 L181.145508,46.6484375 L181.145508,24.6054688 L189.086914,24.6054688 L189.086914,22.0078125 L181.145508,22.0078125 L181.145508,10.8378906 L179.995117,10.8378906 C178.980794,13.3365885 178.189128,15.0559896 177.620117,15.9960938 C176.506836,17.7773438 175.238932,19.3173828 173.816406,20.6162109 C172.39388,21.9150391 171.002279,22.8365885 169.641602,23.3808594 L169.641602,23.3808594 L169.641602,24.6054688 L175.022461,24.6054688 L175.022461,47.4648438 C175.022461,49.9140625 175.282227,51.726237 175.801758,52.9013672 C176.321289,54.0764974 177.125326,54.9794922 178.213867,55.6103516 C179.302409,56.2412109 180.41569,56.5566406 181.553711,56.5566406 Z M205.039822,57.0390625 C208.800239,57.0390625 211.929796,55.6474609 214.428494,52.8642578 C216.927192,50.0810547 218.436306,46.9947917 218.955838,43.6054688 L218.955838,43.6054688 L217.805447,42.8632812 C216.692166,45.8320312 215.312934,47.9287109 213.667752,49.1533203 C212.022569,50.3779297 210.086697,50.9902344 207.860135,50.9902344 C204.520291,50.9902344 201.61339,49.5553385 199.139431,46.6855469 C196.665473,43.8157552 195.440864,39.8574219 195.465603,34.8105469 L195.465603,34.8105469 L218.955838,34.8105469 C218.955838,30.6048177 217.731228,27.2464193 215.28201,24.7353516 C212.832791,22.2242839 209.703234,20.96875 205.893338,20.96875 C201.390734,20.96875 197.648872,22.5953776 194.667752,25.8486328 C191.686632,29.101888 190.196072,33.6354167 190.196072,39.4492188 C190.196072,44.8177083 191.649523,49.0914714 194.556424,52.2705078 C197.463325,55.4495443 200.957791,57.0390625 205.039822,57.0390625 Z M211.199978,32.6582031 L195.465603,32.6582031 C195.737739,29.813151 196.684028,27.5927734 198.30447,25.9970703 C199.924913,24.4013672 201.761827,23.6035156 203.815213,23.6035156 C205.15115,23.6035156 206.431424,23.999349 207.656033,24.7910156 C208.880642,25.5826823 209.802192,26.671224 210.420681,28.0566406 C210.816515,28.9472656 211.07628,30.4811198 211.199978,32.6582031 L211.199978,32.6582031 Z M235.465386,57.0390625 C238.706272,57.0390625 241.662652,55.8330078 244.334527,53.4208984 C247.006402,51.0087891 248.800022,47.5638021 249.715386,43.0859375 L249.715386,43.0859375 L248.639214,42.5664062 C247.352756,45.5598958 246.029188,47.625651 244.668511,48.7636719 C242.738824,50.421224 240.56174,51.25 238.137261,51.25 C234.747938,51.25 232.057509,49.6975911 230.065972,46.5927734 C228.074436,43.4879557 227.078668,39.906901 227.078668,35.8496094 C227.078668,31.8665365 228.080621,28.6627604 230.084527,26.2382812 C231.593641,24.4075521 233.585178,23.4921875 236.059136,23.4921875 C237.59299,23.4921875 238.79286,23.8632812 239.658746,24.6054688 C240.524631,25.3723958 241.025608,26.4856771 241.161675,27.9453125 C241.297743,29.4049479 241.576063,30.3945312 241.996636,30.9140625 C242.738824,31.8541667 243.839735,32.3242188 245.299371,32.3242188 C246.387912,32.3242188 247.235243,32.0335286 247.841363,31.4521484 C248.447483,30.8707682 248.750543,30.110026 248.750543,29.1699219 C248.750543,27.264974 247.674371,25.4280599 245.522027,23.6591797 C243.369683,21.8902995 240.623589,21.0058594 237.283746,21.0058594 C232.830621,21.0058594 229.01454,22.6757812 225.835503,26.015625 C222.656467,29.3554688 221.066949,33.6972656 221.066949,39.0410156 C221.066949,44.5579427 222.501845,48.936849 225.371636,52.1777344 C228.241428,55.4186198 231.606011,57.0390625 235.465386,57.0390625 Z M267.412435,56 L267.412435,54.6640625 C265.680664,54.6640625 264.46224,54.4723307 263.757161,54.0888672 C263.052083,53.7054036 262.569661,53.2291667 262.309896,52.6601562 C262.05013,52.0911458 261.920247,50.6438802 261.920247,48.3183594 L261.920247,48.3183594 L261.920247,30.3574219 C263.750977,28.4029948 265.32194,27.1041667 266.633138,26.4609375 C267.944336,25.8177083 269.206055,25.4960938 270.418294,25.4960938 C271.605794,25.4960938 272.620117,25.7867839 273.461263,26.3681641 C274.302409,26.9495443 274.914714,27.8216146 275.298177,28.984375 C275.681641,30.1471354 275.873372,32.5839844 275.873372,36.2949219 L275.873372,36.2949219 L275.873064,48.6166735 C275.869363,50.3683183 275.832357,51.4316406 275.762044,51.8066406 C275.514648,52.7467448 275.081706,53.4580078 274.463216,53.9404297 C273.844727,54.4228516 272.743815,54.6640625 271.160482,54.6640625 L271.160482,54.6640625 L270.381185,54.6640625 L270.381185,56 L287.080404,56 L287.080404,54.6640625 C285.49707,54.6640625 284.408529,54.4908854 283.814779,54.1445312 C283.221029,53.7981771 282.800456,53.328125 282.55306,52.734375 C282.206706,51.9427083 282.033529,50.4707031 282.033529,48.3183594 L282.033529,48.3183594 L282.033529,36.2949219 C282.033529,32.0891927 281.798503,29.1946615 281.328451,27.6113281 C280.660482,25.3352865 279.633789,23.6653646 278.248372,22.6015625 C276.862956,21.5377604 275.205404,21.0058594 273.275716,21.0058594 C271.667643,21.0058594 270.05957,21.4326172 268.451497,22.2861328 C266.843424,23.1396484 264.666341,25.0755208 261.920247,28.09375 L261.920247,28.09375 L261.920247,3.23046875 L260.213216,3.23046875 L250.045247,7.38671875 L250.564779,8.68554688 C251.727539,8.28971354 252.568685,8.09179688 253.088216,8.09179688 C253.731445,8.09179688 254.244792,8.25260417 254.628255,8.57421875 C255.011719,8.89583333 255.296224,9.50195312 255.481771,10.3925781 C255.667318,11.2832031 255.760091,13.6705729 255.760091,17.5546875 L255.760091,17.5546875 L255.760091,48.3183594 C255.760091,50.4459635 255.611654,51.8561198 255.314779,52.5488281 C255.017904,53.2415365 254.62207,53.7115885 254.127279,53.9589844 C253.261393,54.4290365 252.073893,54.6640625 250.564779,54.6640625 L250.564779,54.6640625 L250.564779,56 L267.412435,56 Z" id="Webbtech" fill="url(#linearGradient-1)" fill-rule="nonzero"></path>
    </g>
</svg>