<?xml version="1.0" standalone="no"?>
<!DOCTYPE svg PUBLIC "-//W3C//DTD SVG 20010904//EN"
 "http://www.w3.org/TR/2001/REC-SVG-20010904/DTD/svg10.dtd">
<svg version="1.0" xmlns="http://www.w3.org/2000/svg"
 width="700.000000pt" height="700.000000pt" viewBox="0 0 700.000000 700.000000"
 preserveAspectRatio="xMidYMid meet">
<metadata>
Created by potrace 1.14, written by Peter Selinger 2001-2017
</metadata>
<g transform="translate(0.000000,700.000000) scale(0.100000,-0.100000)"
fill="#000000" stroke="none">
<path d="M484 5802 l-22 -3 23 -92 c19 -75 42 -175 80 -337 7 -31 74 -309 105
-440 40 -166 69 -289 75 -315 3 -11 16 -69 31 -130 14 -60 27 -117 29 -126 2
-9 8 -33 14 -55 6 -21 33 -138 62 -259 28 -121 67 -283 85 -360 19 -77 36
-149 38 -160 7 -35 76 -324 81 -337 2 -7 6 -24 9 -38 2 -14 16 -74 31 -135 14
-60 60 -252 101 -425 41 -173 84 -351 94 -395 11 -44 38 -156 60 -250 22 -93
43 -179 45 -190 3 -11 16 -69 31 -130 14 -60 27 -114 28 -120 1 -5 13 -53 25
-105 l22 -95 664 0 c421 0 668 4 673 10 5 6 14 35 21 65 15 73 19 92 37 164 8
34 17 70 19 81 6 25 51 217 139 585 14 58 27 116 30 130 5 27 120 512 187 795
23 94 54 226 70 295 16 69 32 136 36 150 3 14 8 32 9 41 2 9 19 83 39 165 47
197 137 576 139 589 17 90 82 332 87 323 3 -7 16 -53 27 -103 28 -121 151
-634 159 -665 3 -14 8 -34 10 -44 2 -10 13 -55 24 -100 12 -45 23 -92 26 -106
2 -14 13 -61 24 -105 10 -44 21 -89 23 -100 3 -11 28 -114 55 -230 28 -115 90
-372 137 -570 47 -198 103 -434 125 -525 41 -170 75 -312 110 -460 11 -47 31
-130 45 -185 13 -55 27 -112 29 -127 3 -14 9 -37 14 -49 l8 -24 658 0 c424 0
662 4 670 10 9 8 51 163 70 260 2 11 22 99 45 195 23 96 50 211 60 255 10 44
42 177 70 295 28 118 53 222 55 230 4 20 65 280 71 303 2 9 6 27 9 40 3 12 14
58 24 102 11 44 22 92 25 107 2 15 7 31 9 36 3 4 8 27 12 52 4 25 8 47 10 50
3 5 98 405 150 630 23 102 76 322 80 332 2 7 6 24 9 38 4 24 37 166 106 455
47 200 95 403 140 595 23 96 57 240 76 320 19 80 36 155 39 168 5 19 1 22 -22
23 -150 5 -1049 2 -1062 -3 -11 -4 -21 -21 -25 -40 -12 -65 -14 -74 -26 -118
-7 -25 -13 -52 -15 -60 -6 -29 -67 -286 -116 -488 -27 -112 -51 -213 -53 -225
-2 -12 -16 -69 -30 -127 -66 -275 -98 -407 -102 -428 -3 -13 -18 -78 -35 -145
-16 -67 -31 -133 -34 -147 -3 -14 -18 -81 -35 -150 -17 -69 -56 -231 -86 -360
-31 -129 -57 -242 -59 -250 -49 -199 -120 -499 -151 -632 -15 -70 -30 -100
-31 -65 -1 17 -43 199 -48 207 -2 4 -7 22 -10 41 -3 19 -29 129 -56 244 -28
116 -57 237 -64 270 -15 62 -55 230 -100 420 -15 61 -29 121 -31 135 -3 14
-11 50 -19 80 -8 30 -16 66 -18 80 -3 14 -13 54 -22 90 -9 36 -19 76 -21 89
-3 13 -25 107 -50 210 -25 102 -54 224 -64 271 -11 47 -29 123 -40 170 -11 47
-27 117 -36 155 -8 39 -17 77 -19 85 -17 65 -45 183 -49 202 -5 28 -33 146
-76 323 -18 72 -33 136 -34 143 -1 8 -7 17 -13 20 -12 8 -1100 8 -1108 1 -3
-4 -67 -262 -90 -369 -2 -8 -19 -80 -39 -160 -19 -80 -37 -157 -40 -170 -2
-14 -48 -207 -101 -430 -53 -223 -99 -416 -101 -430 -3 -14 -12 -52 -21 -85
-8 -33 -17 -71 -20 -85 -4 -27 -22 -101 -78 -335 -20 -82 -54 -226 -76 -320
-22 -93 -42 -177 -44 -185 -2 -8 -12 -53 -23 -100 -11 -47 -37 -155 -57 -240
-33 -138 -44 -187 -73 -320 l-8 -35 -13 50 c-7 28 -14 57 -16 65 -2 8 -22 92
-45 185 -23 94 -44 181 -46 195 -3 13 -23 99 -45 190 -22 91 -47 192 -54 225
-8 33 -31 128 -51 210 -19 83 -37 157 -39 165 -17 76 -29 130 -50 215 -21 85
-67 277 -155 650 -11 44 -60 251 -110 460 -50 209 -92 389 -94 400 -12 58 -59
241 -64 250 -6 9 -1028 16 -1088 7z"/>
</g>
</svg>
