<?xml version="1.0" standalone="no"?>
<!DOCTYPE svg PUBLIC "-//W3C//DTD SVG 20010904//EN"
 "http://www.w3.org/TR/2001/REC-SVG-20010904/DTD/svg10.dtd">
<svg version="1.0" xmlns="http://www.w3.org/2000/svg"
 width="700.000000pt" height="700.000000pt" viewBox="0 0 700.000000 700.000000"
 preserveAspectRatio="xMidYMid meet">
<metadata>
Created by potrace 1.14, written by Peter Selinger 2001-2017
</metadata>
<g transform="translate(0.000000,700.000000) scale(0.100000,-0.100000)"
fill="#000000" stroke="none">
<path d="M0 6536 l0 -83 48 -13 c104 -27 182 -69 226 -120 69 -84 152 -294
309 -785 59 -182 110 -347 113 -362 1 -7 20 -70 42 -140 23 -70 54 -173 71
-228 16 -55 48 -158 69 -230 22 -71 57 -184 77 -250 20 -66 86 -282 147 -480
204 -668 230 -750 243 -795 7 -25 38 -126 68 -225 31 -99 106 -344 167 -545
61 -201 127 -417 147 -480 19 -63 43 -142 53 -175 16 -55 44 -146 162 -530 22
-71 44 -143 48 -160 6 -22 170 -560 205 -670 1 -6 30 -11 66 -10 l64 0 78 240
c118 359 220 678 432 1340 42 132 98 308 125 390 107 330 220 684 241 750 11
39 32 102 45 140 23 70 53 162 204 635 45 140 100 313 123 383 l41 128 17 -53
c9 -29 28 -96 44 -148 15 -52 40 -138 55 -190 16 -52 103 -354 195 -670 91
-316 175 -602 185 -635 10 -33 27 -91 38 -130 38 -128 192 -659 207 -710 7
-27 28 -97 45 -155 17 -58 39 -134 50 -170 85 -293 103 -353 120 -411 12 -37
23 -75 25 -85 2 -11 23 -82 45 -159 23 -77 46 -153 50 -170 25 -95 90 -309 96
-314 3 -3 35 -6 70 -7 49 0 65 3 69 15 2 9 18 63 34 121 16 58 54 191 85 295
30 105 106 370 169 590 64 220 140 486 171 590 88 307 287 999 291 1015 2 8
47 164 100 345 53 182 99 339 102 350 15 56 76 268 93 325 11 36 28 97 39 135
10 39 53 189 96 335 42 146 117 405 166 575 50 171 91 315 93 320 1 6 8 30 15
55 10 38 54 182 158 525 93 304 139 403 234 496 61 60 144 101 222 108 4 1 7
39 7 85 l0 85 -613 0 -612 0 1 -77 c1 -42 2 -81 3 -87 0 -5 18 -10 39 -11 136
-3 260 -44 323 -108 67 -66 107 -192 103 -321 -5 -168 -28 -296 -99 -550 -88
-315 -161 -570 -174 -610 -6 -16 -28 -93 -50 -170 -22 -77 -61 -212 -86 -300
-26 -88 -55 -189 -65 -225 -10 -36 -38 -135 -63 -220 -83 -285 -299 -1033
-349 -1210 -27 -96 -53 -179 -56 -185 -3 -5 -9 2 -13 15 -8 29 -167 573 -241
825 -28 94 -54 184 -58 200 -8 28 -36 125 -210 720 -112 382 -193 659 -206
705 -7 25 -58 202 -114 394 -121 420 -169 614 -174 698 -9 171 83 294 242 323
52 9 172 22 222 24 l35 1 0 83 0 82 -1143 2 -1142 2 -1 -25 c-2 -77 -2 -134 2
-138 2 -2 36 -7 76 -10 289 -27 401 -150 563 -621 34 -99 67 -202 75 -230 8
-27 32 -111 55 -185 23 -74 43 -142 45 -150 2 -8 19 -67 38 -130 19 -63 54
-180 77 -260 l41 -145 -171 -545 c-95 -300 -179 -567 -187 -595 -8 -27 -17
-57 -20 -65 -3 -8 -8 -21 -10 -27 -1 -7 -5 -19 -6 -25 -2 -7 -7 -20 -10 -28
-3 -8 -40 -123 -81 -255 -41 -132 -102 -328 -136 -435 -34 -107 -63 -199 -64
-205 -19 -73 -51 -164 -57 -158 -4 4 -16 40 -27 78 -16 56 -126 412 -172 560
-12 38 -59 194 -94 310 -15 50 -31 101 -36 115 -5 14 -22 70 -39 125 -58 192
-183 601 -226 740 -52 166 -146 471 -185 605 -16 52 -51 167 -79 255 -55 178
-149 498 -155 530 -3 11 -16 67 -30 125 -62 256 -64 361 -9 463 43 78 126 128
239 142 74 10 108 14 120 14 7 1 11 30 10 84 l-1 82 -1022 2 -1023 2 0 -83z"/>
</g>
</svg>
